# xmcd
#
# Track frame offsets:
#	150
#	10215
#	23690
#	34304
#	48382
#	60785
#	70125
#	81507
#	95113
#	104860
#	116590
#	127851
#	140304
#	153462
#	166078
#	177736
#
# Disc length: 2493 seconds
#
# Revision: 1
# Processed by: cddbd v1.5.1PL2 Copyright (c) Steve Scherf et al.
# Submitted via: audiograbber 1.83.01
#
DISCID=d709bb10
DTITLE=George Jones - The Country
DYEAR=1900
DGENRE=
TTITLE0=Heartaches&Hangovers
TTITLE1=Almost Persuaded
TTITLE2=Ragged But Right
TTITLE3=All I Have To Offer You Is Me
TTITLE4=Okie From Muskogie
TTITLE5=Living On Easy Street
TTITLE6=Talk Back Trembling Lips
TTITLE7=Come Sundown
TTITLE8=Honky Tonk Downstairs
TTITLE9=We Must Have been Out Of Our Minds
TTITLE10=Ruby Dont Take Your Love to Town
TTITLE11=Blue Side Of Lonesome
TTITLE12=Hello Darlin
TTITLE13=Dont Be Angry
TTITLE14=Fightin Side Of Me
TTITLE15=The Race Is On
EXTD=
EXTT0=
EXTT1=
EXTT2=
EXTT3=
EXTT4=
EXTT5=
EXTT6=
EXTT7=
EXTT8=
EXTT9=
EXTT10=
EXTT11=
EXTT12=
EXTT13=
EXTT14=
EXTT15=
PLAYORDER=
